<?xml version="1.0" standalone="no"?>
<!DOCTYPE svg PUBLIC "-//W3C//DTD SVG 20010904//EN"
 "http://www.w3.org/TR/2001/REC-SVG-20010904/DTD/svg10.dtd">
<svg version="1.0" xmlns="http://www.w3.org/2000/svg"
 width="264.000000pt" height="264.000000pt" viewBox="0 0 264.000000 264.000000"
 preserveAspectRatio="xMidYMid meet">
<metadata>
Created by potrace 1.14, written by Peter Selinger 2001-2017
</metadata>
<g transform="translate(0.000000,264.000000) scale(0.100000,-0.100000)"
fill="#000000" stroke="none">
<path d="M1142 2255 c-79 -17 -136 -50 -190 -109 -67 -72 -76 -103 -76 -246
-1 -115 1 -130 26 -183 15 -31 50 -81 77 -110 l50 -53 3 -125 3 -124 209 -3
c161 -2 211 1 218 10 4 7 8 31 8 53 0 23 5 46 12 53 7 7 39 12 72 12 67 0 74
3 99 40 12 18 17 46 17 102 l0 78 28 0 c34 0 72 25 72 48 0 9 -13 37 -29 61
-26 38 -28 46 -15 56 11 8 14 27 12 80 -3 63 -5 70 -25 73 -14 2 -20 8 -17 17
8 19 -38 117 -77 166 -78 99 -289 144 -477 104z m65 -77 c6 -24 13 -50 17 -59
5 -11 1 -18 -13 -22 -16 -4 -28 7 -56 47 -19 28 -35 54 -35 58 0 6 14 9 66 17
6 0 15 -18 21 -41z m170 16 c9 -15 19 -53 21 -88 l4 -61 -22 24 c-25 25 -95
60 -121 61 -20 0 -29 20 -29 61 l0 29 65 0 c59 0 66 -2 82 -26z m133 -14 c22
-11 51 -32 65 -47 24 -26 65 -94 65 -109 0 -3 -22 -3 -49 1 -45 6 -50 4 -70
-21 -12 -15 -21 -41 -21 -61 0 -49 -28 -102 -64 -124 -41 -25 -47 -24 -36 7
13 32 13 85 0 118 -7 19 -5 36 10 68 24 53 24 88 2 154 l-18 51 39 -9 c21 -5
56 -17 77 -28z m-392 -26 c13 -20 22 -37 20 -37 -2 -1 -17 -12 -35 -25 -18
-12 -34 -22 -36 -22 -3 0 -16 18 -30 39 l-26 40 32 19 c44 28 49 27 75 -14z
m-88 -75 l33 -50 26 24 c37 35 66 48 78 36 15 -15 3 -68 -18 -80 -25 -13 -59
-81 -59 -116 0 -26 -8 -33 -75 -66 -42 -20 -80 -37 -85 -37 -13 0 -13 194 0
242 9 31 53 98 65 98 2 0 18 -23 35 -51z m290 6 c36 -18 71 -62 64 -80 -4 -10
-14 -8 -41 11 -20 13 -40 24 -44 24 -5 0 -9 5 -9 12 0 6 -7 20 -17 30 -15 17
-15 18 1 18 9 0 30 -7 46 -15z m-62 -17 c18 -18 14 -46 -7 -58 -38 -20 -71 13
-51 51 12 21 40 25 58 7z m113 -118 c36 -66 14 -139 -53 -180 -129 -78 -266
77 -178 200 18 25 27 30 44 25 54 -17 72 -16 90 4 19 20 20 20 49 4 16 -10 38
-34 48 -53z m279 30 c0 -13 -10 -24 -25 -30 -47 -18 -53 -93 -10 -118 14 -7
12 -11 -15 -22 -24 -10 -39 -10 -71 -1 -21 6 -39 13 -39 15 0 2 7 20 15 39 8
20 15 50 15 67 0 57 14 70 75 70 49 0 55 -2 55 -20z m50 -90 c0 -29 -2 -30
-45 -30 -43 0 -45 1 -45 30 0 29 2 30 45 30 43 0 45 -1 45 -30z m-552 -130
c14 -11 42 -25 63 -32 28 -8 39 -17 39 -31 0 -14 -4 -17 -17 -12 -10 4 -39 10
-65 12 -57 6 -89 -11 -108 -56 -7 -17 -15 -31 -19 -31 -14 0 -70 66 -90 108
l-22 43 83 39 82 38 15 -29 c7 -17 25 -39 39 -49z m314 38 c-16 -16 -15 -45 2
-51 23 -9 41 20 25 39 -12 15 -11 16 11 9 14 -4 26 -8 27 -9 1 -1 -7 -26 -17
-56 -11 -30 -19 -74 -20 -97 0 -55 -15 -56 -81 -3 -56 44 -56 44 -95 30 -31
-12 -44 -1 -44 38 0 16 7 26 21 29 11 3 55 23 97 44 86 42 91 44 74 27z m226
-32 c18 -24 32 -49 32 -54 0 -13 -25 -22 -60 -22 -36 0 -40 -12 -40 -115 0
-97 -6 -105 -86 -105 -35 0 -60 8 -98 31 -88 55 -126 89 -126 115 0 38 42 31
101 -16 28 -22 56 -40 62 -40 30 1 40 20 42 77 3 77 30 143 59 143 11 1 32 7
46 15 34 20 33 20 68 -29z m-498 -94 c0 -5 -10 -8 -22 -8 -18 1 -23 -5 -23
-24 0 -16 8 -28 23 -35 12 -5 22 -13 22 -17 0 -3 -10 -8 -22 -10 -17 -2 -23
-10 -23 -28 0 -18 6 -26 23 -28 12 -2 22 -7 22 -12 0 -5 -10 -10 -22 -12 -17
-2 -23 -10 -23 -28 0 -16 8 -28 23 -35 12 -5 22 -13 22 -17 0 -3 -10 -8 -22
-10 -18 -2 -23 -9 -23 -30 1 -16 -3 -28 -7 -28 -4 0 -8 13 -8 29 0 16 -5 42
-10 56 -7 19 -6 45 5 92 11 49 13 75 5 102 -14 51 -14 51 25 51 19 0 35 -4 35
-8z m60 -27 c34 -18 39 -35 10 -35 -30 0 -28 -55 3 -65 l22 -8 -22 -4 c-31 -6
-33 -62 -3 -70 11 -3 20 -9 20 -14 0 -5 -9 -9 -20 -9 -30 0 -28 -56 3 -66 21
-7 21 -8 -8 -15 -19 -6 -40 -4 -57 4 -32 14 -38 32 -8 22 17 -6 20 -2 20 28 0
27 -5 36 -22 42 l-23 8 23 4 c30 6 32 62 2 70 -11 3 -20 9 -20 14 0 5 9 9 20
9 16 0 20 7 20 30 0 23 -4 30 -20 30 -11 0 -20 5 -20 10 0 6 9 10 20 10 11 0
20 5 20 10 0 13 6 13 40 -5z m-145 -15 c3 -5 -1 -10 -10 -10 -9 0 -13 5 -10
10 3 6 8 10 10 10 2 0 7 -4 10 -10z m-2 -27 c-7 -2 -19 -2 -25 0 -7 3 -2 5 12
5 14 0 19 -2 13 -5z m0 -20 c-7 -2 -19 -2 -25 0 -7 3 -2 5 12 5 14 0 19 -2 13
-5z m214 -25 c29 -28 33 -38 33 -84 0 -29 -4 -56 -10 -59 -5 -3 -10 -19 -10
-36 0 -33 -15 -39 -23 -8 -3 11 -15 23 -26 26 -28 7 -27 21 2 25 16 2 22 10
22 28 0 18 -6 26 -22 28 -13 2 -23 7 -23 12 0 5 10 10 23 12 16 2 22 10 22 28
0 16 -8 28 -22 35 -25 10 -31 25 -11 25 7 0 27 -14 45 -32z m-212 2 c-3 -5
-13 -10 -21 -10 -8 0 -14 5 -14 10 0 6 9 10 21 10 11 0 17 -4 14 -10z m-8 -26
c-3 -3 -12 -4 -19 -1 -8 3 -5 6 6 6 11 1 17 -2 13 -5z m0 -20 c-3 -3 -12 -4
-19 -1 -8 3 -5 6 6 6 11 1 17 -2 13 -5z m316 -31 c-7 -2 -19 -2 -25 0 -7 3 -2
5 12 5 14 0 19 -2 13 -5z m25 -20 c-10 -2 -28 -2 -40 0 -13 2 -5 4 17 4 22 1
32 -1 23 -4z m0 -20 c-10 -2 -28 -2 -40 0 -13 2 -5 4 17 4 22 1 32 -1 23 -4z
m-338 -23 c0 -5 -7 -10 -15 -10 -8 0 -15 5 -15 10 0 6 7 10 15 10 8 0 15 -4
15 -10z m330 0 c0 -5 -13 -10 -30 -10 -16 0 -30 5 -30 10 0 6 14 10 30 10 17
0 30 -4 30 -10z m-333 -26 c-3 -3 -12 -4 -19 -1 -8 3 -5 6 6 6 11 1 17 -2 13
-5z m311 -1 c-10 -2 -28 -2 -40 0 -13 2 -5 4 17 4 22 1 32 -1 23 -4z m-311
-19 c-3 -3 -12 -4 -19 -1 -8 3 -5 6 6 6 11 1 17 -2 13 -5z m311 -1 c-10 -2
-28 -2 -40 0 -13 2 -5 4 17 4 22 1 32 -1 23 -4z m-305 -20 c-7 -2 -19 -2 -25
0 -7 3 -2 5 12 5 14 0 19 -2 13 -5z m305 0 c-10 -2 -28 -2 -40 0 -13 2 -5 4
17 4 22 1 32 -1 23 -4z"/>
<path d="M973 2063 c-19 -7 -16 -53 3 -60 18 -7 45 6 51 24 4 11 -23 44 -35
42 -4 0 -13 -3 -19 -6z m23 -40 c-10 -10 -19 5 -10 18 6 11 8 11 12 0 2 -7 1
-15 -2 -18z"/>
<path d="M944 1879 c-3 -6 -2 -15 4 -21 13 -13 32 -2 32 18 0 16 -26 19 -36 3z"/>
<path d="M1192 1950 c-48 -45 -35 -121 25 -146 28 -12 38 -12 66 0 88 36 62
166 -33 166 -23 0 -44 -8 -58 -20z m111 -31 c50 -68 -50 -139 -102 -73 -26 33
-26 45 0 78 28 35 73 33 102 -5z"/>
<path d="M1000 1735 c-20 -25 -8 -50 25 -50 21 0 31 5 33 18 4 21 -14 47 -33
47 -7 0 -18 -7 -25 -15z m40 -26 c0 -5 -7 -9 -15 -9 -15 0 -20 12 -9 23 8 8
24 -1 24 -14z"/>
<path d="M1296 1712 c-9 -14 12 -35 28 -29 23 9 20 37 -3 37 -11 0 -22 -4 -25
-8z"/>
<path d="M1440 1636 c0 -8 4 -17 9 -20 11 -7 33 18 24 27 -12 12 -33 7 -33 -7z"/>
<path d="M81 1086 c-13 -7 -30 -24 -37 -37 -34 -62 -1 -109 101 -142 62 -19
70 -25 70 -47 0 -50 -98 -52 -120 -2 -7 16 -18 22 -43 22 -32 0 -34 -2 -27
-27 19 -79 133 -112 223 -64 28 15 42 42 42 79 0 47 -32 77 -102 97 -68 19
-88 30 -88 51 0 38 93 41 105 3 5 -14 16 -19 41 -19 19 0 34 4 34 10 0 24 -26
63 -51 76 -35 18 -116 18 -148 0z"/>
<path d="M385 1087 c-3 -7 -4 -80 -3 -162 l3 -150 123 -3 122 -3 0 31 0 30
-85 0 -85 0 0 40 0 40 75 0 75 0 0 30 0 30 -75 0 -75 0 0 30 0 29 83 3 82 3 0
30 0 30 -118 3 c-90 2 -119 0 -122 -11z"/>
<path d="M730 935 l0 -165 115 0 115 0 0 30 0 30 -80 0 -80 0 0 135 0 135 -35
0 -35 0 0 -165z"/>
<path d="M1050 935 l0 -165 120 0 120 0 0 30 0 30 -85 0 -85 0 0 40 0 39 78 3
c75 3 77 4 77 28 0 24 -2 25 -77 28 l-78 3 0 29 0 29 83 3 82 3 0 30 0 30
-117 3 -118 3 0 -166z"/>
<path d="M1390 935 l0 -165 35 0 34 0 3 105 3 105 64 -105 c60 -100 65 -105
97 -105 l34 0 0 165 0 165 -30 0 -30 0 0 -107 c0 -125 3 -125 -84 15 -55 87
-60 92 -92 92 l-34 0 0 -165z"/>
<path d="M1780 936 l0 -166 35 0 35 0 -2 163 -3 162 -32 3 -33 3 0 -165z"/>
<path d="M1967 1093 c-4 -3 -7 -78 -7 -165 l0 -158 35 0 35 0 0 53 c0 40 5 58
18 70 10 10 21 17 24 17 3 0 26 -31 52 -70 46 -70 46 -70 92 -70 l46 0 -48 68
c-26 37 -58 81 -71 98 l-22 30 59 59 c33 33 60 63 60 67 0 4 -17 8 -37 8 -33
0 -46 -8 -105 -67 l-68 -67 0 67 c0 67 0 67 -28 67 -16 0 -32 -3 -35 -7z"/>
<path d="M2419 1073 c-49 -125 -109 -287 -109 -294 0 -5 15 -9 34 -9 29 0 34
4 42 33 10 31 11 32 75 35 l66 3 9 -33 c9 -29 14 -33 48 -36 34 -3 38 -1 31
15 -3 10 -32 84 -62 166 l-55 147 -34 0 c-28 0 -36 -5 -45 -27z m75 -150 c7
-21 4 -23 -33 -23 l-40 0 15 43 c26 75 25 74 39 37 7 -19 15 -45 19 -57z"/>
<path d="M257 542 c-33 -37 -8 -92 41 -92 24 0 62 32 62 53 0 49 -70 75 -103
39z m64 -2 c39 -21 13 -75 -33 -68 -26 3 -37 41 -18 64 15 17 25 18 51 4z"/>
<path d="M380 506 c0 -31 5 -56 10 -56 6 0 10 11 10 24 0 21 6 25 33 28 27 2
32 7 32 28 0 22 -5 25 -42 28 l-43 3 0 -55z m70 25 c0 -5 -11 -11 -25 -13 -17
-4 -25 -1 -25 8 0 8 11 14 25 14 14 0 25 -4 25 -9z"/>
<path d="M490 505 l0 -55 40 0 c22 0 40 5 40 10 0 6 -13 10 -30 10 -20 0 -30
5 -30 15 0 8 9 15 20 15 11 0 20 5 20 11 0 6 -9 9 -20 6 -13 -3 -20 0 -20 9 0
8 10 14 24 14 14 0 28 5 31 10 4 6 -10 10 -34 10 l-41 0 0 -55z"/>
<path d="M598 505 c4 -62 22 -76 22 -17 l1 37 30 -37 c17 -21 35 -38 40 -38 5
0 9 25 9 55 0 30 -4 55 -10 55 -5 0 -10 -18 -10 -41 l0 -41 -32 40 c-18 23
-37 41 -43 41 -6 1 -9 -21 -7 -54z"/>
<path d="M770 545 c-17 -20 3 -45 36 -45 16 0 24 -6 24 -16 0 -13 -7 -15 -36
-11 -30 5 -34 4 -24 -8 25 -30 80 -12 80 26 0 18 -19 29 -52 29 -11 0 -18 5
-15 13 2 7 18 11 36 9 20 -1 30 2 26 8 -9 15 -61 12 -75 -5z"/>
<path d="M886 545 c-33 -33 -7 -95 40 -95 70 1 77 101 8 108 -19 2 -38 -3 -48
-13z m68 -11 c29 -29 12 -64 -31 -64 -32 0 -46 31 -27 58 18 26 37 28 58 6z"/>
<path d="M1011 520 c0 -26 4 -51 11 -58 14 -14 47 -15 67 -3 16 11 28 101 13
101 -6 0 -12 -19 -14 -42 -3 -38 -6 -43 -30 -46 -28 -3 -31 1 -41 68 -3 14 -5
5 -6 -20z"/>
<path d="M1130 511 c0 -28 5 -53 10 -56 6 -3 10 3 10 14 0 33 21 35 45 5 13
-16 26 -26 30 -22 4 4 0 14 -9 23 -14 15 -14 18 -1 31 29 30 8 54 -47 54 l-38
0 0 -49z m78 17 c-7 -20 -58 -23 -58 -4 0 11 10 16 31 16 20 0 29 -4 27 -12z"/>
<path d="M1265 540 c-35 -39 7 -99 61 -86 37 10 28 23 -13 22 -32 -1 -38 2
-41 22 -5 35 16 54 51 46 20 -4 27 -3 23 5 -11 18 -61 13 -81 -9z"/>
<path d="M1372 508 l3 -53 43 -3 c25 -2 42 1 42 7 0 6 -16 11 -35 11 -24 0
-35 5 -35 15 0 9 10 15 26 15 14 0 23 4 19 10 -3 6 -15 10 -26 10 -10 0 -19 5
-19 10 0 6 14 10 30 10 17 0 30 5 30 10 0 6 -18 10 -41 10 l-40 0 3 -52z"/>
<path d="M1520 506 c0 -31 5 -56 10 -56 6 0 10 11 10 24 0 21 6 25 33 28 27 2
32 7 32 28 0 22 -5 25 -42 28 l-43 3 0 -55z m70 25 c0 -5 -11 -11 -25 -13 -17
-4 -25 -1 -25 8 0 8 11 14 25 14 14 0 25 -4 25 -9z"/>
<path d="M1630 511 c0 -28 5 -53 10 -56 6 -3 10 3 10 14 0 33 21 35 45 5 13
-16 26 -26 30 -22 4 4 0 15 -9 24 -15 14 -15 18 -2 33 24 26 3 51 -44 51 l-40
0 0 -49z m78 17 c-7 -20 -58 -23 -58 -4 0 11 10 16 31 16 20 0 29 -4 27 -12z"/>
<path d="M1766 544 c-21 -21 -20 -57 2 -77 51 -46 124 13 87 69 -18 28 -65 32
-89 8z m68 -10 c31 -30 8 -69 -36 -62 -26 3 -37 41 -18 64 16 18 35 18 54 -2z"/>
<path d="M1923 546 c12 -10 17 -24 15 -43 -2 -22 -9 -29 -31 -31 -30 -4 -28
-22 3 -22 30 0 50 28 50 71 0 36 -2 39 -27 39 -26 -1 -27 -2 -10 -14z"/>
<path d="M1990 505 l0 -55 40 0 c22 0 40 5 40 10 0 6 -13 10 -30 10 -36 0 -42
26 -7 33 l22 4 -22 8 c-30 10 -29 25 1 25 14 0 28 5 31 10 4 6 -10 10 -34 10
l-41 0 0 -55z"/>
<path d="M2106 544 c-44 -44 8 -111 68 -88 28 11 17 21 -21 20 -32 -1 -38 2
-41 22 -5 35 16 54 51 46 20 -4 27 -3 23 5 -10 16 -62 13 -80 -5z"/>
<path d="M2205 550 c3 -5 13 -10 21 -10 10 0 14 -12 14 -45 0 -25 5 -45 10
-45 6 0 10 20 10 45 0 33 4 45 14 45 8 0 18 5 21 10 4 6 -13 10 -45 10 -32 0
-49 -4 -45 -10z"/>
<path d="M2316 544 c-9 -22 11 -44 40 -44 16 0 24 -6 24 -16 0 -13 -7 -15 -35
-11 -40 7 -48 -9 -10 -19 30 -8 53 0 61 21 9 22 -14 45 -43 45 -15 0 -23 5
-20 13 2 6 16 11 31 10 14 -1 24 2 21 8 -10 16 -62 10 -69 -7z"/>
</g>
</svg>
